<svg width="110" height="25" viewBox="0 0 110 25" fill="none" xmlns="http://www.w3.org/2000/svg">
<path d="M32.4875 20.0971C32.1564 20.0971 31.8982 20.0053 31.7128 19.8217C31.5407 19.6381 31.4546 19.3824 31.4546 19.0546V7.13477C31.4546 6.79383 31.5473 6.53812 31.7327 6.36765C31.9181 6.18407 32.1763 6.09228 32.5073 6.09228H37.2547C38.7643 6.09228 39.9296 6.44633 40.7506 7.15444C41.5717 7.86255 41.9822 8.8657 41.9822 10.1639C41.9822 11.0031 41.7968 11.7244 41.426 12.3276C41.0552 12.9308 40.5123 13.3897 39.7972 13.7044C39.0954 14.0191 38.2479 14.1765 37.2547 14.1765L37.4335 13.9011H37.9499C38.4796 13.9011 38.9365 14.0323 39.3205 14.2945C39.7177 14.5568 40.0753 14.9764 40.3931 15.5534L42.1013 18.7005C42.2338 18.9366 42.2934 19.166 42.2801 19.389C42.2801 19.5988 42.2007 19.7692 42.0418 19.9004C41.8961 20.0315 41.6842 20.0971 41.4061 20.0971C41.1148 20.0971 40.8764 20.0381 40.6911 19.92C40.5189 19.7889 40.36 19.5988 40.2143 19.3496L38.1287 15.5337C37.8506 15.0223 37.5328 14.6814 37.1752 14.5109C36.8177 14.3273 36.3476 14.2355 35.7649 14.2355H33.5204V19.0546C33.5204 19.3824 33.4343 19.6381 33.2622 19.8217C33.09 20.0053 32.8318 20.0971 32.4875 20.0971ZM33.5204 12.7013H36.917C37.9234 12.7013 38.6849 12.4915 39.2013 12.0719C39.7177 11.6522 39.976 11.0294 39.976 10.2032C39.976 9.39022 39.7177 8.77391 39.2013 8.35429C38.6849 7.93467 37.9234 7.72486 36.917 7.72486H33.5204V12.7013Z" fill="white"/>
<path d="M47.9179 20.1364C47.2425 20.1364 46.6334 20.0053 46.0905 19.743C45.5608 19.4808 45.1436 19.1267 44.8391 18.6809C44.5345 18.235 44.3822 17.7302 44.3822 17.1663C44.3822 16.4582 44.561 15.9009 44.9185 15.4944C45.2893 15.0748 45.8918 14.7797 46.7261 14.6092C47.5736 14.4257 48.7124 14.3339 50.1426 14.3339H51.0762V15.5534H50.1625C49.209 15.5534 48.4542 15.5993 47.898 15.6911C47.3419 15.7829 46.9446 15.9402 46.7062 16.1631C46.4811 16.3729 46.3686 16.668 46.3686 17.0483C46.3686 17.5466 46.5407 17.9531 46.885 18.2678C47.2293 18.5694 47.706 18.7202 48.3152 18.7202C48.8051 18.7202 49.2355 18.6087 49.6063 18.3858C49.9771 18.1498 50.2684 17.8351 50.4803 17.4417C50.7054 17.0483 50.8179 16.5959 50.8179 16.0845V13.8225C50.8179 13.075 50.659 12.5374 50.3412 12.2095C50.0234 11.8817 49.5003 11.7178 48.772 11.7178C48.3483 11.7178 47.9047 11.7702 47.4412 11.8752C46.9909 11.9801 46.5208 12.1571 46.0309 12.4062C45.8058 12.5111 45.6137 12.5439 45.4548 12.5046C45.2959 12.4652 45.1701 12.38 45.0774 12.2489C44.9847 12.1046 44.9318 11.9538 44.9185 11.7965C44.9185 11.626 44.9583 11.4621 45.0377 11.3047C45.1304 11.1474 45.2827 11.0294 45.4946 10.9507C46.0772 10.6753 46.6533 10.4786 47.2227 10.3606C47.7921 10.2426 48.3284 10.1836 48.8316 10.1836C49.7188 10.1836 50.4472 10.3213 51.0166 10.5966C51.5992 10.872 52.0296 11.2916 52.3077 11.8555C52.5858 12.4193 52.7248 13.1471 52.7248 14.0388V19.0939C52.7248 19.4086 52.6454 19.6578 52.4865 19.8414C52.3276 20.0118 52.0958 20.0971 51.7913 20.0971C51.4999 20.0971 51.2682 20.0118 51.096 19.8414C50.9239 19.6578 50.8378 19.4086 50.8378 19.0939V17.8154H51.0166C50.9106 18.3006 50.712 18.7202 50.4207 19.0742C50.1426 19.4152 49.7917 19.6775 49.3679 19.861C48.9442 20.0446 48.4608 20.1364 47.9179 20.1364Z" fill="white"/>
<path d="M59.3812 20.1364C58.5337 20.1364 57.7855 19.9397 57.1367 19.5463C56.501 19.1398 56.0045 18.5628 55.6469 17.8154C55.2894 17.0548 55.1106 16.1697 55.1106 15.16C55.1106 14.1241 55.2894 13.2389 55.6469 12.5046C56.0045 11.7702 56.501 11.1998 57.1367 10.7933C57.7855 10.3868 58.5337 10.1836 59.3812 10.1836C60.2287 10.1836 60.9571 10.3934 61.5662 10.813C62.1886 11.2195 62.6057 11.7702 62.8176 12.4652H62.5991V6.95774C62.5991 6.62991 62.6852 6.38076 62.8573 6.21029C63.0295 6.03982 63.2744 5.95459 63.5923 5.95459C63.9101 5.95459 64.1551 6.03982 64.3272 6.21029C64.5126 6.38076 64.6053 6.62991 64.6053 6.95774V19.0939C64.6053 19.4086 64.5192 19.6578 64.3471 19.8414C64.1749 20.0118 63.9299 20.0971 63.6121 20.0971C63.2943 20.0971 63.0493 20.0118 62.8772 19.8414C62.705 19.6578 62.619 19.4086 62.619 19.0939V17.363L62.8375 17.7957C62.6256 18.5038 62.2084 19.0742 61.5861 19.507C60.9769 19.9266 60.242 20.1364 59.3812 20.1364ZM59.8977 18.6022C60.4406 18.6022 60.9173 18.471 61.3278 18.2088C61.7383 17.9465 62.0562 17.5597 62.2813 17.0483C62.5196 16.5369 62.6388 15.9074 62.6388 15.16C62.6388 14.0323 62.3872 13.1799 61.884 12.6029C61.3808 12.026 60.7187 11.7375 59.8977 11.7375C59.3415 11.7375 58.8582 11.8686 58.4476 12.1309C58.0371 12.38 57.7127 12.7603 57.4743 13.2717C57.2492 13.7831 57.1367 14.4125 57.1367 15.16C57.1367 16.2746 57.3883 17.127 57.8915 17.717C58.3947 18.3071 59.0634 18.6022 59.8977 18.6022Z" fill="white"/>
<path d="M68.6141 20.0774C68.2963 20.0774 68.0513 19.9856 67.8792 19.802C67.707 19.6053 67.6209 19.3365 67.6209 18.9956V11.3244C67.6209 10.9835 67.707 10.7212 67.8792 10.5376C68.0513 10.354 68.2963 10.2622 68.6141 10.2622C68.9319 10.2622 69.1769 10.354 69.3491 10.5376C69.5345 10.7212 69.6271 10.9835 69.6271 11.3244V18.9956C69.6271 19.3365 69.5411 19.6053 69.3689 19.802C69.1968 19.9856 68.9452 20.0774 68.6141 20.0774ZM68.6141 8.2166C68.2169 8.2166 67.9057 8.11825 67.6805 7.92155C67.4687 7.72486 67.3627 7.44948 67.3627 7.09543C67.3627 6.72826 67.4687 6.45289 67.6805 6.2693C67.9057 6.07261 68.2169 5.97426 68.6141 5.97426C69.0114 5.97426 69.316 6.07261 69.5278 6.2693C69.7529 6.45289 69.8655 6.72826 69.8655 7.09543C69.8655 7.44948 69.7529 7.72486 69.5278 7.92155C69.316 8.11825 69.0114 8.2166 68.6141 8.2166Z" fill="white"/>
<path d="M73.9606 20.0971C73.6163 20.0971 73.3449 20.0053 73.1462 19.8217C72.9608 19.6381 72.8681 19.3693 72.8681 19.0152V7.19378C72.8681 6.83972 72.9608 6.5709 73.1462 6.38732C73.3449 6.19062 73.6229 6.09228 73.9805 6.09228H81.0518C81.3432 6.09228 81.555 6.1644 81.6875 6.30864C81.8331 6.43977 81.906 6.63647 81.906 6.89873C81.906 7.17411 81.8331 7.38392 81.6875 7.52816C81.555 7.67241 81.3432 7.74453 81.0518 7.74453H74.9339V12.1702H80.6546C80.9194 12.1702 81.1247 12.2423 81.2703 12.3866C81.4292 12.5177 81.5087 12.7144 81.5087 12.9767C81.5087 13.252 81.4292 13.4618 81.2703 13.6061C81.1247 13.7503 80.9194 13.8225 80.6546 13.8225H74.9339V19.0152C74.9339 19.7365 74.6095 20.0971 73.9606 20.0971Z" fill="white"/>
<path d="M85.4025 20.0774C85.0847 20.0774 84.8397 19.9856 84.6676 19.802C84.4954 19.6053 84.4094 19.3365 84.4094 18.9956V11.3244C84.4094 10.9835 84.4954 10.7212 84.6676 10.5376C84.8397 10.354 85.0847 10.2622 85.4025 10.2622C85.7203 10.2622 85.9653 10.354 86.1375 10.5376C86.3229 10.7212 86.4156 10.9835 86.4156 11.3244V18.9956C86.4156 19.3365 86.3295 19.6053 86.1573 19.802C85.9852 19.9856 85.7336 20.0774 85.4025 20.0774ZM85.4025 8.2166C85.0053 8.2166 84.6941 8.11825 84.469 7.92155C84.2571 7.72486 84.1511 7.44948 84.1511 7.09543C84.1511 6.72826 84.2571 6.45289 84.469 6.2693C84.6941 6.07261 85.0053 5.97426 85.4025 5.97426C85.7998 5.97426 86.1044 6.07261 86.3162 6.2693C86.5414 6.45289 86.6539 6.72826 86.6539 7.09543C86.6539 7.44948 86.5414 7.72486 86.3162 7.92155C86.1044 8.11825 85.7998 8.2166 85.4025 8.2166Z" fill="white"/>
<path d="M90.4312 20.0971C90.1134 20.0971 89.8684 20.0118 89.6963 19.8414C89.5241 19.6578 89.4381 19.4086 89.4381 19.0939V11.2261C89.4381 10.8982 89.5241 10.6491 89.6963 10.4786C89.8684 10.3081 90.1068 10.2229 90.4114 10.2229C90.7292 10.2229 90.9675 10.3081 91.1264 10.4786C91.2986 10.6491 91.3847 10.8982 91.3847 11.2261V12.7603L91.1662 12.4062C91.4575 11.6719 91.9144 11.1212 92.5367 10.754C93.1591 10.3737 93.8742 10.1836 94.682 10.1836C95.45 10.1836 96.0857 10.3278 96.5889 10.6163C97.1053 10.8917 97.4893 11.3178 97.7409 11.8948C97.9925 12.4587 98.1183 13.1734 98.1183 14.0388V19.0939C98.1183 19.4086 98.0323 19.6578 97.8601 19.8414C97.688 20.0118 97.443 20.0971 97.1252 20.0971C96.7941 20.0971 96.5425 20.0118 96.3704 19.8414C96.1982 19.6578 96.1121 19.4086 96.1121 19.0939V14.1568C96.1121 13.3307 95.9466 12.7275 95.6156 12.3472C95.2977 11.9669 94.7945 11.7768 94.1059 11.7768C93.2982 11.7768 92.6493 12.026 92.1593 12.5243C91.6826 13.0226 91.4443 13.6913 91.4443 14.5306V19.0939C91.4443 19.7627 91.1066 20.0971 90.4312 20.0971Z" fill="white"/>
<path d="M104.776 20.1364C103.928 20.1364 103.18 19.9397 102.531 19.5463C101.896 19.1398 101.399 18.5628 101.042 17.8154C100.684 17.0548 100.505 16.1697 100.505 15.16C100.505 14.1241 100.684 13.2389 101.042 12.5046C101.399 11.7702 101.896 11.1998 102.531 10.7933C103.18 10.3868 103.928 10.1836 104.776 10.1836C105.623 10.1836 106.352 10.3934 106.961 10.813C107.583 11.2195 108 11.7702 108.212 12.4652H107.994V6.95774C107.994 6.62991 108.08 6.38076 108.252 6.21029C108.424 6.03982 108.669 5.95459 108.987 5.95459C109.305 5.95459 109.55 6.03982 109.722 6.21029C109.907 6.38076 110 6.62991 110 6.95774V19.0939C110 19.4086 109.914 19.6578 109.742 19.8414C109.57 20.0118 109.325 20.0971 109.007 20.0971C108.689 20.0971 108.444 20.0118 108.272 19.8414C108.1 19.6578 108.014 19.4086 108.014 19.0939V17.363L108.232 17.7957C108.02 18.5038 107.603 19.0742 106.981 19.507C106.372 19.9266 105.637 20.1364 104.776 20.1364ZM105.292 18.6022C105.835 18.6022 106.312 18.471 106.723 18.2088C107.133 17.9465 107.451 17.5597 107.676 17.0483C107.914 16.5369 108.034 15.9074 108.034 15.16C108.034 14.0323 107.782 13.1799 107.279 12.6029C106.776 12.026 106.113 11.7375 105.292 11.7375C104.736 11.7375 104.253 11.8686 103.842 12.1309C103.432 12.38 103.107 12.7603 102.869 13.2717C102.644 13.7831 102.531 14.4125 102.531 15.16C102.531 16.2746 102.783 17.127 103.286 17.717C103.789 18.3071 104.458 18.6022 105.292 18.6022Z" fill="white"/>
<path d="M0.365723 16.2538V21.846C0.365723 23.1134 1.39313 24.1408 2.66051 24.1408C3.92788 24.1408 4.95529 23.1134 4.95529 21.846V19.5498C3.15461 18.857 1.57837 17.712 0.365723 16.2538Z" fill="url(#paint0_linear_8414_13281)"/>
<path d="M0.417343 10.0532C0.734829 12.9505 2.49058 15.4152 4.95529 16.7181V10.5394C4.95529 9.27204 3.92788 8.24463 2.66051 8.24463C1.55998 8.24463 0.64039 9.01934 0.417343 10.0532Z" fill="url(#paint1_linear_8414_13281)"/>
<path fill-rule="evenodd" clip-rule="evenodd" d="M11.0088 17.4682C10.3556 17.6268 9.6732 17.7109 8.97116 17.7109C4.21851 17.7109 0.365723 13.8581 0.365723 9.10544C0.365723 4.35279 4.21851 0.5 8.97116 0.5C13.7238 0.5 17.5766 4.35279 17.5766 9.10544C17.5766 11.502 16.5969 13.6697 15.0162 15.23L18.3515 21.0574C18.9852 22.155 18.6091 23.5585 17.5115 24.1922C16.4139 24.8259 15.0105 24.4498 14.3768 23.3522L11.0088 17.4682ZM12.987 9.10544C12.987 11.3233 11.1891 13.1213 8.97116 13.1213C6.75326 13.1213 4.95529 11.3233 4.95529 9.10544C4.95529 6.88753 6.75326 5.08957 8.97116 5.08957C11.1891 5.08957 12.987 6.88753 12.987 9.10544Z" fill="url(#paint2_linear_8414_13281)"/>
<defs>
<linearGradient id="paint0_linear_8414_13281" x1="-2.64618" y1="9.10517" x2="-7.26369" y2="19.029" gradientUnits="userSpaceOnUse">
<stop stop-color="#3EBAFF"/>
<stop offset="1" stop-color="#0063BF"/>
</linearGradient>
<linearGradient id="paint1_linear_8414_13281" x1="-2.64618" y1="9.10517" x2="-7.26369" y2="19.029" gradientUnits="userSpaceOnUse">
<stop stop-color="#3EBAFF"/>
<stop offset="1" stop-color="#0063BF"/>
</linearGradient>
<linearGradient id="paint2_linear_8414_13281" x1="2.81957" y1="-2.44454" x2="14.1174" y2="34.5239" gradientUnits="userSpaceOnUse">
<stop stop-color="#3EBAFF"/>
<stop offset="1" stop-color="#0063BF"/>
</linearGradient>
</defs>
</svg>
